<?xml version="1.0" standalone="no"?>
<svg version="1.0" xmlns="http://www.w3.org/2000/svg"
 viewBox="0 0 128.000000 128.000000"
 preserveAspectRatio="xMidYMid meet">
    <g transform="translate(0.000000,128.000000) scale(0.100000,-0.100000)" stroke="none">
        <path d="M140 983 c0 -87 5 -176 11 -198 15 -52 82 -119 134 -134 54 -15 656
        -15 710 0 52 15 119 82 134 134 6 22 11 111 11 198 l0 157 -60 0 -60 0 0 -161
        0 -161 -29 -29 -29 -29 -322 0 -322 0 -29 29 -29 29 0 161 0 161 -60 0 -60 0
        0 -157z"/>
        <path d="M140 483 c0 -87 5 -176 11 -198 15 -52 82 -119 134 -134 54 -15 656
        -15 710 0 52 15 119 82 134 134 6 22 11 111 11 198 l0 157 -60 0 -60 0 0 -161
        0 -161 -29 -29 -29 -29 -322 0 -322 0 -29 29 -29 29 0 161 0 161 -60 0 -60 0
        0 -157z"/>
    </g>
</svg>
