<?xml version="1.0" standalone="no"?>
<svg version="1.0" xmlns="http://www.w3.org/2000/svg"
 viewBox="0 0 128.000000 128.000000"
 preserveAspectRatio="xMidYMid meet">
    <g transform="translate(0.000000,128.000000) scale(0.100000,-0.100000)" stroke="none">
        <path d="M140 1080 l0 -60 161 0 161 0 29 -29 29 -29 0 -322 0 -322 -29 -29
        -29 -29 -161 0 -161 0 0 -60 0 -60 158 0 c86 0 175 5 197 11 52 15 119 82 134
        134 15 54 15 656 0 710 -15 52 -82 119 -134 134 -22 6 -111 11 -197 11 l-158
        0 0 -60z"/>
        <path d="M640 1080 l0 -60 161 0 161 0 29 -29 29 -29 0 -322 0 -322 -29 -29
        -29 -29 -161 0 -161 0 0 -60 0 -60 158 0 c86 0 175 5 197 11 52 15 119 82 134
        134 15 54 15 656 0 710 -15 52 -82 119 -134 134 -22 6 -111 11 -197 11 l-158
        0 0 -60z"/>
    </g>
</svg>