<?xml version="1.0" standalone="no"?>
<svg version="1.0" xmlns="http://www.w3.org/2000/svg"
 viewBox="0 0 128.000000 128.000000"
 preserveAspectRatio="xMidYMid meet">
    <g transform="translate(0.000000,128.000000) scale(0.100000,-0.100000)" stroke="none">
        <path d="M275 1125 c-51 -18 -110 -81 -124 -131 -15 -53 -15 -656 0 -709 15
        -52 82 -119 134 -134 54 -15 656 -15 710 0 52 15 119 82 134 134 15 54 15 656
        0 710 -15 52 -82 119 -134 134 -63 17 -669 14 -720 -4z m716 -134 l29 -29 0
        -322 0 -322 -29 -29 -29 -29 -322 0 -322 0 -29 29 -29 29 0 322 0 322 29 29
        29 29 322 0 322 0 29 -29z"/>
    </g>
</svg>
